<mxfile host="app.diagrams.net" agent="Mozilla/5.0 (Windows NT 10.0; Win64; x64) AppleWebKit/537.36 (KHTML, like Gecko) Chrome/140.0.0.0 Safari/537.36" version="28.2.3">
  <diagram name="Trang-1" id="1j9SmmENvWLVRRzYS0KP">
    <mxGraphModel grid="0" page="0" gridSize="10" guides="1" tooltips="1" connect="1" arrows="1" fold="1" pageScale="1" pageWidth="827" pageHeight="1169" math="0" shadow="0">
      <root>
        <mxCell id="0" />
        <mxCell id="1" parent="0" />
        <mxCell id="wnMKB2DuC80dMhVpVNFd-1" value="" style="rounded=0;whiteSpace=wrap;html=1;fillColor=#0050ef;fontColor=#ffffff;strokeColor=#001DBC;" vertex="1" parent="1">
          <mxGeometry x="883" y="232" width="190" height="150" as="geometry" />
        </mxCell>
        <mxCell id="wnMKB2DuC80dMhVpVNFd-2" value="" style="sketch=0;pointerEvents=1;shadow=0;dashed=0;html=1;labelPosition=center;verticalLabelPosition=bottom;verticalAlign=top;outlineConnect=0;align=center;shape=mxgraph.office.users.user;" vertex="1" parent="1">
          <mxGeometry x="955" y="242" width="46" height="50" as="geometry" />
        </mxCell>
        <mxCell id="wnMKB2DuC80dMhVpVNFd-3" value="Member" style="text;html=1;align=center;verticalAlign=middle;whiteSpace=wrap;rounded=0;fontColor=light-dark(#ffffff, #ededed);fontSize=16;fontFamily=Helvetica;fontStyle=1" vertex="1" parent="1">
          <mxGeometry x="948" y="292" width="60" height="30" as="geometry" />
        </mxCell>
        <mxCell id="wnMKB2DuC80dMhVpVNFd-4" value="Organizer of meeting groups, meetings, member of group, meeting attendee" style="text;html=1;align=center;verticalAlign=middle;whiteSpace=wrap;rounded=0;fontColor=light-dark(#ffffff, #ededed);" vertex="1" parent="1">
          <mxGeometry x="903" y="332" width="150" height="30" as="geometry" />
        </mxCell>
        <mxCell id="wnMKB2DuC80dMhVpVNFd-5" value="" style="rounded=0;whiteSpace=wrap;html=1;fillColor=#0050ef;fontColor=#ffffff;strokeColor=#001DBC;" vertex="1" parent="1">
          <mxGeometry x="883" y="702" width="190" height="140" as="geometry" />
        </mxCell>
        <mxCell id="wnMKB2DuC80dMhVpVNFd-6" value="" style="sketch=0;pointerEvents=1;shadow=0;dashed=0;html=1;labelPosition=center;verticalLabelPosition=bottom;verticalAlign=top;outlineConnect=0;align=center;shape=mxgraph.office.users.user;" vertex="1" parent="1">
          <mxGeometry x="955" y="712" width="46" height="50" as="geometry" />
        </mxCell>
        <mxCell id="wnMKB2DuC80dMhVpVNFd-7" value="Administrator" style="text;html=1;align=center;verticalAlign=middle;whiteSpace=wrap;rounded=0;fontColor=light-dark(#ffffff, #ededed);fontSize=16;fontFamily=Helvetica;fontStyle=1" vertex="1" parent="1">
          <mxGeometry x="948" y="762" width="60" height="30" as="geometry" />
        </mxCell>
        <mxCell id="wnMKB2DuC80dMhVpVNFd-8" value="Administrator of the system" style="text;html=1;align=center;verticalAlign=middle;whiteSpace=wrap;rounded=0;fontColor=light-dark(#ffffff, #ededed);" vertex="1" parent="1">
          <mxGeometry x="903" y="802" width="150" height="30" as="geometry" />
        </mxCell>
        <mxCell id="wnMKB2DuC80dMhVpVNFd-9" value="" style="rounded=0;whiteSpace=wrap;html=1;fillColor=#0050ef;fontColor=#ffffff;strokeColor=#001DBC;" vertex="1" parent="1">
          <mxGeometry x="915.5" y="542" width="125" height="30" as="geometry" />
        </mxCell>
        <mxCell id="wnMKB2DuC80dMhVpVNFd-10" value="My Meetings" style="text;html=1;align=center;verticalAlign=middle;whiteSpace=wrap;rounded=0;fontSize=16;fontFamily=Verdana;fillColor=#b1ddf0;strokeColor=#10739e;" vertex="1" parent="1">
          <mxGeometry x="913" y="542" width="130" height="30" as="geometry" />
        </mxCell>
        <mxCell id="wnMKB2DuC80dMhVpVNFd-11" value="" style="rounded=0;whiteSpace=wrap;html=1;fillColor=#647687;strokeColor=#314354;fontColor=#ffffff;" vertex="1" parent="1">
          <mxGeometry x="643" y="542" width="150" height="30" as="geometry" />
        </mxCell>
        <mxCell id="wnMKB2DuC80dMhVpVNFd-12" value="Payment Gateway" style="text;html=1;align=center;verticalAlign=middle;whiteSpace=wrap;rounded=0;fontColor=light-dark(#ffffff, #ededed);fontSize=16;fontFamily=Verdana;" vertex="1" parent="1">
          <mxGeometry x="643" y="542" width="150" height="30" as="geometry" />
        </mxCell>
        <mxCell id="wnMKB2DuC80dMhVpVNFd-13" value="" style="rounded=0;whiteSpace=wrap;html=1;fillColor=#647687;strokeColor=#314354;fontColor=#ffffff;" vertex="1" parent="1">
          <mxGeometry x="1133" y="542" width="150" height="30" as="geometry" />
        </mxCell>
        <mxCell id="wnMKB2DuC80dMhVpVNFd-14" value="Email Service" style="text;html=1;align=center;verticalAlign=middle;whiteSpace=wrap;rounded=0;fontColor=light-dark(#ffffff, #ededed);fontSize=16;fontFamily=Verdana;" vertex="1" parent="1">
          <mxGeometry x="1133" y="542" width="150" height="30" as="geometry" />
        </mxCell>
        <mxCell id="wnMKB2DuC80dMhVpVNFd-15" value="" style="endArrow=classic;html=1;rounded=0;entryX=0.843;entryY=-0.088;entryDx=0;entryDy=0;entryPerimeter=0;exitX=0.039;exitY=1.012;exitDx=0;exitDy=0;exitPerimeter=0;" edge="1" parent="1" source="wnMKB2DuC80dMhVpVNFd-1" target="wnMKB2DuC80dMhVpVNFd-12">
          <mxGeometry width="50" height="50" relative="1" as="geometry">
            <mxPoint x="813" y="452" as="sourcePoint" />
            <mxPoint x="863" y="402" as="targetPoint" />
          </mxGeometry>
        </mxCell>
        <mxCell id="wnMKB2DuC80dMhVpVNFd-16" value="" style="endArrow=classic;html=1;rounded=0;exitX=0.5;exitY=1;exitDx=0;exitDy=0;entryX=0.5;entryY=0;entryDx=0;entryDy=0;" edge="1" parent="1" source="wnMKB2DuC80dMhVpVNFd-1" target="wnMKB2DuC80dMhVpVNFd-10">
          <mxGeometry width="50" height="50" relative="1" as="geometry">
            <mxPoint x="963" y="462" as="sourcePoint" />
            <mxPoint x="1083" y="462" as="targetPoint" />
          </mxGeometry>
        </mxCell>
        <mxCell id="wnMKB2DuC80dMhVpVNFd-17" value="" style="endArrow=classic;html=1;rounded=0;exitX=1;exitY=0.25;exitDx=0;exitDy=0;entryX=0;entryY=0.5;entryDx=0;entryDy=0;" edge="1" parent="1" source="wnMKB2DuC80dMhVpVNFd-10" target="wnMKB2DuC80dMhVpVNFd-14">
          <mxGeometry width="50" height="50" relative="1" as="geometry">
            <mxPoint x="1023" y="512" as="sourcePoint" />
            <mxPoint x="1143" y="512" as="targetPoint" />
          </mxGeometry>
        </mxCell>
        <mxCell id="wnMKB2DuC80dMhVpVNFd-18" value="" style="endArrow=classic;html=1;rounded=0;exitX=0.29;exitY=1.107;exitDx=0;exitDy=0;exitPerimeter=0;entryX=0.75;entryY=0;entryDx=0;entryDy=0;" edge="1" parent="1" source="wnMKB2DuC80dMhVpVNFd-14" target="wnMKB2DuC80dMhVpVNFd-5">
          <mxGeometry width="50" height="50" relative="1" as="geometry">
            <mxPoint x="1263" y="552" as="sourcePoint" />
            <mxPoint x="1383" y="552" as="targetPoint" />
          </mxGeometry>
        </mxCell>
        <mxCell id="wnMKB2DuC80dMhVpVNFd-19" value="" style="endArrow=classic;html=1;rounded=0;exitX=0.5;exitY=0;exitDx=0;exitDy=0;entryX=0.5;entryY=1;entryDx=0;entryDy=0;" edge="1" parent="1" source="wnMKB2DuC80dMhVpVNFd-5" target="wnMKB2DuC80dMhVpVNFd-10">
          <mxGeometry width="50" height="50" relative="1" as="geometry">
            <mxPoint x="1183" y="452" as="sourcePoint" />
            <mxPoint x="1303" y="452" as="targetPoint" />
          </mxGeometry>
        </mxCell>
        <mxCell id="wnMKB2DuC80dMhVpVNFd-20" value="" style="endArrow=classic;html=1;rounded=0;exitX=1;exitY=0.25;exitDx=0;exitDy=0;entryX=1;entryY=1;entryDx=0;entryDy=0;" edge="1" parent="1" target="wnMKB2DuC80dMhVpVNFd-1">
          <mxGeometry width="50" height="50" relative="1" as="geometry">
            <mxPoint x="1193" y="541.2" as="sourcePoint" />
            <mxPoint x="1313" y="541.2" as="targetPoint" />
          </mxGeometry>
        </mxCell>
        <mxCell id="wnMKB2DuC80dMhVpVNFd-21" value="" style="endArrow=classic;html=1;rounded=0;exitX=1;exitY=0.25;exitDx=0;exitDy=0;entryX=0.031;entryY=0.4;entryDx=0;entryDy=0;entryPerimeter=0;" edge="1" parent="1" target="wnMKB2DuC80dMhVpVNFd-10">
          <mxGeometry width="50" height="50" relative="1" as="geometry">
            <mxPoint x="793" y="552" as="sourcePoint" />
            <mxPoint x="913" y="552" as="targetPoint" />
          </mxGeometry>
        </mxCell>
        <mxCell id="wnMKB2DuC80dMhVpVNFd-22" value="" style="endArrow=classic;html=1;rounded=0;exitX=0;exitY=0.75;exitDx=0;exitDy=0;entryX=1;entryY=0.75;entryDx=0;entryDy=0;" edge="1" parent="1" source="wnMKB2DuC80dMhVpVNFd-10" target="wnMKB2DuC80dMhVpVNFd-12">
          <mxGeometry width="50" height="50" relative="1" as="geometry">
            <mxPoint x="853" y="572" as="sourcePoint" />
            <mxPoint x="973" y="572" as="targetPoint" />
          </mxGeometry>
        </mxCell>
        <mxCell id="wnMKB2DuC80dMhVpVNFd-23" value="Pay in" style="text;html=1;align=center;verticalAlign=middle;whiteSpace=wrap;rounded=0;" vertex="1" parent="1">
          <mxGeometry x="763" y="442" width="60" height="30" as="geometry" />
        </mxCell>
        <mxCell id="wnMKB2DuC80dMhVpVNFd-24" value="Return info about payment" style="text;html=1;align=center;verticalAlign=middle;whiteSpace=wrap;rounded=0;" vertex="1" parent="1">
          <mxGeometry x="803" y="522" width="110" height="30" as="geometry" />
        </mxCell>
        <mxCell id="wnMKB2DuC80dMhVpVNFd-25" value="Delegate the payment" style="text;html=1;align=center;verticalAlign=middle;whiteSpace=wrap;rounded=0;" vertex="1" parent="1">
          <mxGeometry x="793" y="572" width="110" height="30" as="geometry" />
        </mxCell>
        <mxCell id="wnMKB2DuC80dMhVpVNFd-26" value="Send email" style="text;html=1;align=center;verticalAlign=middle;whiteSpace=wrap;rounded=0;" vertex="1" parent="1">
          <mxGeometry x="1133" y="452" width="60" height="30" as="geometry" />
        </mxCell>
        <mxCell id="wnMKB2DuC80dMhVpVNFd-27" value="Send email" style="text;html=1;align=center;verticalAlign=middle;whiteSpace=wrap;rounded=0;" vertex="1" parent="1">
          <mxGeometry x="1113" y="622" width="60" height="30" as="geometry" />
        </mxCell>
        <mxCell id="wnMKB2DuC80dMhVpVNFd-28" value="Request email send" style="text;html=1;align=center;verticalAlign=middle;whiteSpace=wrap;rounded=0;" vertex="1" parent="1">
          <mxGeometry x="1053" y="522" width="80" height="30" as="geometry" />
        </mxCell>
        <mxCell id="wnMKB2DuC80dMhVpVNFd-29" value="Organize meeting groups and paticipate in meetings" style="text;html=1;align=center;verticalAlign=middle;whiteSpace=wrap;rounded=0;" vertex="1" parent="1">
          <mxGeometry x="983" y="422" width="130" height="30" as="geometry" />
        </mxCell>
        <mxCell id="wnMKB2DuC80dMhVpVNFd-30" value="Manage members,meeting groups,meetings" style="text;html=1;align=center;verticalAlign=middle;whiteSpace=wrap;rounded=0;" vertex="1" parent="1">
          <mxGeometry x="963" y="592" width="130" height="30" as="geometry" />
        </mxCell>
        <mxCell id="wnMKB2DuC80dMhVpVNFd-31" value="Legend" style="shape=table;startSize=30;container=1;collapsible=0;childLayout=tableLayout;fontSize=16;align=left;verticalAlign=top;fillColor=none;strokeColor=none;fontColor=#4D4D4D;fontStyle=1;spacingLeft=6;spacing=0;resizable=0;" vertex="1" parent="1">
          <mxGeometry x="628" y="602" width="180" height="150" as="geometry" />
        </mxCell>
        <mxCell id="wnMKB2DuC80dMhVpVNFd-32" value="" style="shape=tableRow;horizontal=0;startSize=0;swimlaneHead=0;swimlaneBody=0;strokeColor=inherit;top=0;left=0;bottom=0;right=0;collapsible=0;dropTarget=0;fillColor=none;points=[[0,0.5],[1,0.5]];portConstraint=eastwest;fontSize=12;" vertex="1" parent="wnMKB2DuC80dMhVpVNFd-31">
          <mxGeometry y="30" width="180" height="30" as="geometry" />
        </mxCell>
        <mxCell id="wnMKB2DuC80dMhVpVNFd-33" value="Person" style="shape=partialRectangle;html=1;whiteSpace=wrap;connectable=0;strokeColor=#001DBC;overflow=hidden;fillColor=#0050ef;top=0;left=0;bottom=0;right=0;pointerEvents=1;fontSize=12;align=left;fontColor=#ffffff;spacingLeft=10;spacingRight=4;" vertex="1" parent="wnMKB2DuC80dMhVpVNFd-32">
          <mxGeometry width="180" height="30" as="geometry">
            <mxRectangle width="180" height="30" as="alternateBounds" />
          </mxGeometry>
        </mxCell>
        <mxCell id="wnMKB2DuC80dMhVpVNFd-34" value="" style="shape=tableRow;horizontal=0;startSize=0;swimlaneHead=0;swimlaneBody=0;strokeColor=inherit;top=0;left=0;bottom=0;right=0;collapsible=0;dropTarget=0;fillColor=none;points=[[0,0.5],[1,0.5]];portConstraint=eastwest;fontSize=12;" vertex="1" parent="wnMKB2DuC80dMhVpVNFd-31">
          <mxGeometry y="60" width="180" height="30" as="geometry" />
        </mxCell>
        <mxCell id="wnMKB2DuC80dMhVpVNFd-35" value="System" style="shape=partialRectangle;html=1;whiteSpace=wrap;connectable=0;strokeColor=#10739e;overflow=hidden;fillColor=#b1ddf0;top=0;left=0;bottom=0;right=0;pointerEvents=1;fontSize=12;align=left;spacingLeft=10;spacingRight=4;" vertex="1" parent="wnMKB2DuC80dMhVpVNFd-34">
          <mxGeometry width="180" height="30" as="geometry">
            <mxRectangle width="180" height="30" as="alternateBounds" />
          </mxGeometry>
        </mxCell>
        <mxCell id="wnMKB2DuC80dMhVpVNFd-36" value="" style="shape=tableRow;horizontal=0;startSize=0;swimlaneHead=0;swimlaneBody=0;strokeColor=inherit;top=0;left=0;bottom=0;right=0;collapsible=0;dropTarget=0;fillColor=none;points=[[0,0.5],[1,0.5]];portConstraint=eastwest;fontSize=12;" vertex="1" parent="wnMKB2DuC80dMhVpVNFd-31">
          <mxGeometry y="90" width="180" height="30" as="geometry" />
        </mxCell>
        <mxCell id="wnMKB2DuC80dMhVpVNFd-37" value="External Person" style="shape=partialRectangle;html=1;whiteSpace=wrap;connectable=0;strokeColor=#23445d;overflow=hidden;fillColor=#bac8d3;top=0;left=0;bottom=0;right=0;pointerEvents=1;fontSize=12;align=left;spacingLeft=10;spacingRight=4;" vertex="1" parent="wnMKB2DuC80dMhVpVNFd-36">
          <mxGeometry width="180" height="30" as="geometry">
            <mxRectangle width="180" height="30" as="alternateBounds" />
          </mxGeometry>
        </mxCell>
        <mxCell id="wnMKB2DuC80dMhVpVNFd-38" value="" style="shape=tableRow;horizontal=0;startSize=0;swimlaneHead=0;swimlaneBody=0;strokeColor=inherit;top=0;left=0;bottom=0;right=0;collapsible=0;dropTarget=0;fillColor=none;points=[[0,0.5],[1,0.5]];portConstraint=eastwest;fontSize=12;" vertex="1" parent="wnMKB2DuC80dMhVpVNFd-31">
          <mxGeometry y="120" width="180" height="30" as="geometry" />
        </mxCell>
        <mxCell id="wnMKB2DuC80dMhVpVNFd-39" value="External System" style="shape=partialRectangle;html=1;whiteSpace=wrap;connectable=0;strokeColor=#314354;overflow=hidden;fillColor=#647687;top=0;left=0;bottom=0;right=0;pointerEvents=1;fontSize=12;align=left;spacingLeft=10;spacingRight=4;fontColor=#ffffff;" vertex="1" parent="wnMKB2DuC80dMhVpVNFd-38">
          <mxGeometry width="180" height="30" as="geometry">
            <mxRectangle width="180" height="30" as="alternateBounds" />
          </mxGeometry>
        </mxCell>
        <mxCell id="wnMKB2DuC80dMhVpVNFd-40" value="Legend" style="shape=table;startSize=30;container=1;collapsible=0;childLayout=tableLayout;fontSize=16;align=left;verticalAlign=top;fillColor=none;strokeColor=none;fontColor=light-dark(#000000,#ABABAB);fontStyle=1;spacingLeft=6;spacing=0;resizable=0;" vertex="1" parent="1">
          <mxGeometry x="1040.5" y="872" width="180" height="209" as="geometry" />
        </mxCell>
        <mxCell id="wnMKB2DuC80dMhVpVNFd-41" value="" style="shape=tableRow;horizontal=0;startSize=0;swimlaneHead=0;swimlaneBody=0;strokeColor=inherit;top=0;left=0;bottom=0;right=0;collapsible=0;dropTarget=0;fillColor=none;points=[[0,0.5],[1,0.5]];portConstraint=eastwest;fontSize=12;" vertex="1" parent="wnMKB2DuC80dMhVpVNFd-40">
          <mxGeometry y="30" width="180" height="30" as="geometry" />
        </mxCell>
        <mxCell id="wnMKB2DuC80dMhVpVNFd-42" value="Person" style="shape=partialRectangle;html=1;whiteSpace=wrap;connectable=0;strokeColor=inherit;overflow=hidden;fillColor=#1E4074;top=0;left=0;bottom=0;right=0;pointerEvents=1;fontSize=12;align=left;fontColor=#FFFFFF;gradientColor=none;spacingLeft=10;spacingRight=4;" vertex="1" parent="wnMKB2DuC80dMhVpVNFd-41">
          <mxGeometry width="180" height="30" as="geometry">
            <mxRectangle width="180" height="30" as="alternateBounds" />
          </mxGeometry>
        </mxCell>
        <mxCell id="wnMKB2DuC80dMhVpVNFd-43" value="" style="shape=tableRow;horizontal=0;startSize=0;swimlaneHead=0;swimlaneBody=0;strokeColor=inherit;top=0;left=0;bottom=0;right=0;collapsible=0;dropTarget=0;fillColor=none;points=[[0,0.5],[1,0.5]];portConstraint=eastwest;fontSize=12;" vertex="1" parent="wnMKB2DuC80dMhVpVNFd-40">
          <mxGeometry y="60" width="180" height="29" as="geometry" />
        </mxCell>
        <mxCell id="wnMKB2DuC80dMhVpVNFd-44" value="System" style="shape=partialRectangle;html=1;whiteSpace=wrap;connectable=0;strokeColor=inherit;overflow=hidden;fillColor=#3162AF;top=0;left=0;bottom=0;right=0;pointerEvents=1;fontSize=12;align=left;fontColor=#FFFFFF;gradientColor=none;spacingLeft=10;spacingRight=4;" vertex="1" parent="wnMKB2DuC80dMhVpVNFd-43">
          <mxGeometry width="180" height="29" as="geometry">
            <mxRectangle width="180" height="29" as="alternateBounds" />
          </mxGeometry>
        </mxCell>
        <mxCell id="wnMKB2DuC80dMhVpVNFd-45" value="" style="shape=tableRow;horizontal=0;startSize=0;swimlaneHead=0;swimlaneBody=0;strokeColor=inherit;top=0;left=0;bottom=0;right=0;collapsible=0;dropTarget=0;fillColor=none;points=[[0,0.5],[1,0.5]];portConstraint=eastwest;fontSize=12;" vertex="1" parent="wnMKB2DuC80dMhVpVNFd-40">
          <mxGeometry y="89" width="180" height="30" as="geometry" />
        </mxCell>
        <mxCell id="wnMKB2DuC80dMhVpVNFd-46" value="Container" style="shape=partialRectangle;html=1;whiteSpace=wrap;connectable=0;strokeColor=inherit;overflow=hidden;fillColor=#52a2d8;top=0;left=0;bottom=0;right=0;pointerEvents=1;fontSize=12;align=left;fontColor=#FFFFFF;gradientColor=none;spacingLeft=10;spacingRight=4;" vertex="1" parent="wnMKB2DuC80dMhVpVNFd-45">
          <mxGeometry width="180" height="30" as="geometry">
            <mxRectangle width="180" height="30" as="alternateBounds" />
          </mxGeometry>
        </mxCell>
        <mxCell id="wnMKB2DuC80dMhVpVNFd-47" value="" style="shape=tableRow;horizontal=0;startSize=0;swimlaneHead=0;swimlaneBody=0;strokeColor=inherit;top=0;left=0;bottom=0;right=0;collapsible=0;dropTarget=0;fillColor=none;points=[[0,0.5],[1,0.5]];portConstraint=eastwest;fontSize=12;" vertex="1" parent="wnMKB2DuC80dMhVpVNFd-40">
          <mxGeometry y="119" width="180" height="30" as="geometry" />
        </mxCell>
        <mxCell id="wnMKB2DuC80dMhVpVNFd-48" value="External Person" style="shape=partialRectangle;html=1;whiteSpace=wrap;connectable=0;strokeColor=inherit;overflow=hidden;fillColor=#6b6477;top=0;left=0;bottom=0;right=0;pointerEvents=1;fontSize=12;align=left;fontColor=#FFFFFF;gradientColor=none;spacingLeft=10;spacingRight=4;" vertex="1" parent="wnMKB2DuC80dMhVpVNFd-47">
          <mxGeometry width="180" height="30" as="geometry">
            <mxRectangle width="180" height="30" as="alternateBounds" />
          </mxGeometry>
        </mxCell>
        <mxCell id="wnMKB2DuC80dMhVpVNFd-49" value="" style="shape=tableRow;horizontal=0;startSize=0;swimlaneHead=0;swimlaneBody=0;strokeColor=inherit;top=0;left=0;bottom=0;right=0;collapsible=0;dropTarget=0;fillColor=none;points=[[0,0.5],[1,0.5]];portConstraint=eastwest;fontSize=12;" vertex="1" parent="wnMKB2DuC80dMhVpVNFd-40">
          <mxGeometry y="149" width="180" height="30" as="geometry" />
        </mxCell>
        <mxCell id="wnMKB2DuC80dMhVpVNFd-50" value="External Software System" style="shape=partialRectangle;html=1;whiteSpace=wrap;connectable=0;strokeColor=inherit;overflow=hidden;fillColor=#8b8496;top=0;left=0;bottom=0;right=0;pointerEvents=1;fontSize=12;align=left;fontColor=#FFFFFF;gradientColor=none;spacingLeft=10;spacingRight=4;" vertex="1" parent="wnMKB2DuC80dMhVpVNFd-49">
          <mxGeometry width="180" height="30" as="geometry">
            <mxRectangle width="180" height="30" as="alternateBounds" />
          </mxGeometry>
        </mxCell>
        <mxCell id="wnMKB2DuC80dMhVpVNFd-51" value="" style="shape=tableRow;horizontal=0;startSize=0;swimlaneHead=0;swimlaneBody=0;strokeColor=inherit;top=0;left=0;bottom=0;right=0;collapsible=0;dropTarget=0;fillColor=none;points=[[0,0.5],[1,0.5]];portConstraint=eastwest;fontSize=12;" vertex="1" parent="wnMKB2DuC80dMhVpVNFd-40">
          <mxGeometry y="179" width="180" height="30" as="geometry" />
        </mxCell>
        <mxCell id="wnMKB2DuC80dMhVpVNFd-52" value="&lt;font style=&quot;color: light-dark(rgb(255, 255, 255), rgb(237, 237, 237));&quot;&gt;External Container&lt;/font&gt;" style="shape=partialRectangle;html=1;whiteSpace=wrap;connectable=0;strokeColor=#23445d;overflow=hidden;fillColor=#bac8d3;top=0;left=0;bottom=0;right=0;pointerEvents=1;fontSize=12;align=left;spacingLeft=10;spacingRight=4;" vertex="1" parent="wnMKB2DuC80dMhVpVNFd-51">
          <mxGeometry width="180" height="30" as="geometry">
            <mxRectangle width="180" height="30" as="alternateBounds" />
          </mxGeometry>
        </mxCell>
      </root>
    </mxGraphModel>
  </diagram>
</mxfile>
